<?xml version="1.0" encoding="utf-8"?>
<svg version="1.1" xmlns:xlink="http://www.w3.org/1999/xlink" width="11px" height="20px" xmlns="http://www.w3.org/2000/svg">
  <g transform="matrix(1 0 0 1 -576 -133 )">
    <path d="M 10.5873337842293 1.82826233941847  L 2.64673296236379 9.84774737363921  L 10.673878747042 17.7958079783638  C 11.0957854407538 18.2177146720757  11.0957854407538 18.8884381338743  10.6846968673935 19.3103448275862  C 10.273608294033 19.7322515212982  9.59206671188304 19.7322515212982  9.17016001817115 19.3211629477265  L 0.467767736546193 10.7045085211242  C 0.437719655488536 10.6811069905914  0.40862288065432 10.6558844319158  0.380625564864431 10.628839786863  C 0.378754843945671 10.6270327213707  0.376889031701694 10.6252175209416  0.375028172329394 10.6233941852603  C -0.0443942050776513 10.2073976949453  -0.0492270255945186 9.53080282267206  0.36421005197758 9.10885733624917  L 9.06197881465528 0.324543610336377  C 9.26752310133543 0.108181203304582  9.54879423047669 0  9.81924723926636 0  C 10.089700248056 0  10.3601532568457 0.108181203515926  10.5765156638777 0.313725490196077  C 10.9984223575896 0.735632183908081  10.9984223575896 1.40635564570653  10.5873337842293 1.82826233941847  Z " fill-rule="nonzero" fill="#263340" stroke="none" transform="matrix(1 0 0 1 576 133 )" />
  </g>
</svg>