<?xml version="1.0" encoding="utf-8"?>
<svg version="1.1" xmlns:xlink="http://www.w3.org/1999/xlink" width="164px" height="37px" xmlns="http://www.w3.org/2000/svg">
  <g transform="matrix(1 0 0 1 -750 -729 )">
    <path d="M 750.5 747.5  A 18 18 0 0 1 768.5 729.5 L 895.5 729.5  A 18 18 0 0 1 913.5 747.5 A 18 18 0 0 1 895.5 765.5 L 768.5 765.5  A 18 18 0 0 1 750.5 747.5 Z " fill-rule="nonzero" fill="#585de0" stroke="none" />
    <path d="M 750.5 747.5  A 18 18 0 0 1 768.5 729.5 L 895.5 729.5  A 18 18 0 0 1 913.5 747.5 A 18 18 0 0 1 895.5 765.5 L 768.5 765.5  A 18 18 0 0 1 750.5 747.5 Z " stroke-width="1" stroke="#0089ff" fill="none" />
  </g>
</svg>