<?xml version="1.0" encoding="utf-8"?>
<svg version="1.1" xmlns:xlink="http://www.w3.org/1999/xlink" width="14px" height="12px" xmlns="http://www.w3.org/2000/svg">
  <g transform="matrix(1 0 0 1 -618 -492 )">
    <path d="M 6.66666713202613 11.6666666666667  L 6.66666713202613 8  L 5.33333388330361 8  C 3.1044736564371 7.99914906596234  1.05886002426383 9.23401379928856  0.0213342203930888 11.2066666666667  C 0.00702527887262787 11.0270231513556  -9.15217445198749E-05 10.8468791243024  0 10.6666666666667  C 0 6.98466666666667  2.98466736567889 4  6.66666713202613 4  L 6.66666713202613 0.333333333333333  L 13.6666666878194 6  L 6.66666713202613 11.6666666666667  Z M 2.62866738826998 7.182  C 3.48954611994692 6.84081252534044  4.40730982847022 6.66594651801786  5.33333388330361 6.66666666666667  L 8.00000038074866 6.66666666666667  L 8.00000038074866 8.872  L 11.5473334889749 6  L 8.00000038074866 3.128  L 8.00000038074866 5.33333333333333  L 6.66666713202613 5.33333333333333  C 5.11556458114858 5.33159069588029  3.64090623479965 6.00671499073257  2.62866738826998 7.182  Z " fill-rule="nonzero" fill="#69707f" stroke="none" transform="matrix(1 0 0 1 618 492 )" />
  </g>
</svg>