<?xml version="1.0" encoding="utf-8"?>
<svg version="1.1" xmlns:xlink="http://www.w3.org/1999/xlink" width="14px" height="14px" xmlns="http://www.w3.org/2000/svg">
  <g transform="matrix(1 0 0 1 -618 -450 )">
    <path d="M 10.5 0.7  L 10.5 2.8  L 14 2.8  L 14 4.2  L 12.6 4.2  L 12.6 13.3  C 12.6 13.6865993248816  12.2865993248816 14  11.9 14  L 2.1 14  C 1.71340067511844 14  1.4 13.6865993248816  1.4 13.3  L 1.4 4.2  L 0 4.2  L 0 2.8  L 3.5 2.8  L 3.5 0.7  C 3.5 0.313400675118445  3.81340067511845 0  4.2 0  L 9.8 0  C 10.1865993248816 0  10.5 0.313400675118445  10.5 0.7  Z M 11.2 12.6  L 11.2 4.2  L 2.8 4.2  L 2.8 12.6  L 11.2 12.6  Z M 4.9 10.5  L 4.9 6.3  L 6.3 6.3  L 6.3 10.5  L 4.9 10.5  Z M 7.7 10.5  L 7.7 6.3  L 9.1 6.3  L 9.1 10.5  L 7.7 10.5  Z M 9.1 1.4  L 4.9 1.4  L 4.9 2.8  L 9.1 2.8  L 9.1 1.4  Z " fill-rule="nonzero" fill="#69707f" stroke="none" transform="matrix(1 0 0 1 618 450 )" />
  </g>
</svg>