<?xml version="1.0" encoding="utf-8"?>
<svg version="1.1" xmlns:xlink="http://www.w3.org/1999/xlink" width="127px" height="99px" xmlns="http://www.w3.org/2000/svg">
  <g transform="matrix(1 0 0 1 -678 -419 )">
    <path d="M 31.7450336305334 99  L 95.2351008916001 99  C 112.776317847646 98.99473486626  126.980134522133 85.0006288127639  126.980134522133 67.7359455654622  C 127 53.821126231816  117.762552792116 42.0470483341154  105.008916001877 37.9836039418114  C 101.015954950727 16.3581511027687  82.7595807914906 0.00526513374000615  60.8479587048333 0.00526513374000615  C 38.121852025653 0.00526513374000615  19.3291099640231 17.5870952604411  16.2896918504614 40.4216705771938  C 6.57547317378376 45.7735241670578  0 56.0015110276865  0 67.7359455654622  C 0 85.0006288127639  14.2236821523542 98.99473486626  31.7450336305334 99  Z M 95.7317378382606 45.9915626466448  L 101.750977631785 47.9142656030033  C 110.412325981542 50.669479117785  116.391834819334 58.6377944626936  116.391834819334 67.7557672454247  C 116.4117002972 79.2523416236508  106.935867354919 88.5685312060066  95.2549663694666 87  L 31.7450336305334 87  C 20.0442671672142 88.5685312060066  10.5882997027998 79.2325199436883  10.5882997027998 67.7359455654622  C 10.6081651806664 60.1442421398405  14.7799155326139 53.1471891130924  21.4547160957299 49.5198216799625  L 26.1032379164709 46.9628249648053  L 26.7985296417955 41.769544814641  C 29.1823869857657 23.7912810886908  43.7636477397155 10.4314687939934  60.8479587048333 10.4314687939934  C 77.2568434224935 10.4314687939934  91.4606600969812 22.7803754106053  94.5994055998747 39.8468418582825  L 95.7317378382606 45.9915626466448  Z M 60.251994368841 77.7657156264665  C 60.6294384483027 77.7855373064289  61.0068825277648 77.7855373064289  61.3843266072269 77.7855373064289  C 70.2443297356485 77.7855373064289  78.726888784608 72.5724354763022  86.5936180197091 62.2849835757861  C 88.2424526826216 60.0847770999531  87.8252776474268 56.972773345847  85.6400750821212 55.3275739089629  C 83.4548725168152 53.6625527921164  80.3359924917878 54.078808071328  78.6871578288754 56.2591928671985  C 72.6083216017521 64.227508212107  66.5890818082275 68.1522008446738  60.7883622712341 67.8548756452369  C 51.61051149695 67.4187986860629  44.8562490223682 56.8340215861098  44.756921633036 56.6556264664477  C 43.3067417487876 54.33648991084  40.267323635226 53.603087752229  37.9231972469889 55.0500703894885  C 35.5790708587519 56.4772313467855  34.8639136555607 59.5297700610042  36.2942280619425 61.8687282965744  C 36.6716721414047 62.4832003754106  45.8097919599561 77.0323134678555  60.251994368841 77.7657156264665  Z " fill-rule="nonzero" fill="#69707f" stroke="none" fill-opacity="0.325490196078431" transform="matrix(1 0 0 1 678 419 )" />
  </g>
</svg>