<?xml version="1.0" encoding="utf-8"?>
<svg version="1.1" xmlns:xlink="http://www.w3.org/1999/xlink" width="20px" height="20px" xmlns="http://www.w3.org/2000/svg">
  <g transform="matrix(1 0 0 1 -11 -11 )">
    <path d="M 2.53968253968254 19.2063492063492  L 0.793650793650794 19.2063492063492  C 0.793650793650794 15.3491223821341  3.92055095356271 12.2222222222222  7.77777777777778 12.2222222222222  C 11.6350046019928 12.2222222222222  14.7619047619048 15.3491223821341  14.7619047619048 19.2063492063492  L 13.015873015873 19.2063492063492  C 13.015873015873 16.3134290881879  10.6706978959391 13.968253968254  7.77777777777778 13.968253968254  C 4.88485765961648 13.968253968254  2.53968253968254 16.3134290881879  2.53968253968254 19.2063492063492  Z M 13.015873015873 6.11111111111111  C 13.015873015873 9.00515873015873  10.6718253968254 11.3492063492063  7.77777777777778 11.3492063492063  C 4.88373015873016 11.3492063492063  2.53968253968254 9.00515873015873  2.53968253968254 6.11111111111111  C 2.53968253968254 3.21706349206349  4.88373015873016 0.873015873015873  7.77777777777778 0.873015873015873  C 10.6718253968254 0.873015873015873  13.015873015873 3.21706349206349  13.015873015873 6.11111111111111  Z M 4.28571428571429 6.11111111111111  C 4.28571428571429 8.04047619047619  5.8484126984127 9.6031746031746  7.77777777777778 9.6031746031746  C 9.70714285714286 9.6031746031746  11.2698412698413 8.04047619047619  11.2698412698413 6.11111111111111  C 11.2698412698413 4.18174603174603  9.70714285714286 2.61904761904762  7.77777777777778 2.61904761904762  C 5.8484126984127 2.61904761904762  4.28571428571429 4.18174603174603  4.28571428571429 6.11111111111111  Z M 15.0098412698413 12.8359523809524  C 17.5158986958255 13.9646124811681  19.1272665845001 16.4578591910194  19.1269841269841 19.2063492063492  L 17.3809523809524 19.2063492063492  C 17.3813611444814 17.1448698641607  16.1727859015945 15.2747730860098  14.2930952380952 14.4283333333333  L 15.0089682539683 12.8359523809524  Z M 13.9246825396825 4.67587301587302  L 14.4092063492063 2.97960317460317  C 16.2080999325441 3.72110018650385  17.381675201491 5.47491258166622  17.3809523809524 7.42063492063492  C 17.3817143190054 9.90376005422038  15.4887535804848 11.9776878393435  13.015873015873 12.2030158730159  L 13.015873015873 10.4456349206349  C 14.5206996773749 10.2301092230583  15.6382234958724 8.94112676456488  15.6382234958724 7.42094433884001  C 15.6382234958724 6.25374490994554  14.9732793078271 5.18851258189225  13.9246825396825 4.67587301587302  Z " fill-rule="nonzero" fill="#69707f" stroke="none" transform="matrix(1 0 0 1 11 11 )" />
  </g>
</svg>