<?xml version="1.0" encoding="utf-8"?>
<svg version="1.1" xmlns:xlink="http://www.w3.org/1999/xlink" width="19px" height="21px" xmlns="http://www.w3.org/2000/svg">
  <g transform="matrix(1 0 0 1 -855 -110 )">
    <path d="M 9.5023193359375 10.4954427083333  L 9.5 10.5045572916667  L 9.5023193359375 10.4954427083333  Z M 11.69873046875 19.49609375  C 11.0562744140625 19.9518229166667  10.2955322265625 20.193359375  9.5 20.193359375  C 8.7044677734375 20.193359375  7.9437255859375 19.9518229166667  7.30126953125 19.4938151041667  C 6.7005615234375 19.0654296875  6.2459716796875 18.4820963541667  5.979248046875 17.8030598958333  L 2.041015625 17.8030598958333  C 1.5330810546875 17.8030598958333  1.0877685546875 17.541015625  0.848876953125 17.1012369791667  C 0.6099853515625 16.6614583333333  0.6331787109375 16.1510416666667  0.9161376953125 15.736328125  L 2.0665283203125 14.0432942708333  L 2.0665283203125 9.3037109375  C 2.0665283203125 7.73372395833333  2.5675048828125 6.23893229166667  3.511474609375 4.97884114583333  C 3.966064453125 4.37272135416667  4.5111083984375 3.841796875  5.1326904296875 3.3974609375  C 5.74267578125 2.96223958333333  6.4129638671875 2.62044270833333  7.125 2.3857421875  C 7.310546875 1.9345703125  7.621337890625 1.54947916666667  8.02490234375 1.26692708333333  C 8.4586181640625 0.9638671875  8.9688720703125 0.804361979166666  9.5 0.804361979166666  C 10.0311279296875 0.804361979166666  10.5413818359375 0.9638671875  10.97509765625 1.26692708333333  C 11.378662109375 1.54947916666667  11.689453125 1.9345703125  11.875 2.3857421875  C 12.5870361328125 2.62272135416667  13.25732421875 2.96223958333333  13.8673095703125 3.3974609375  C 14.486572265625 3.83951822916667  15.033935546875 4.37272135416667  15.488525390625 4.97884114583333  C 16.434814453125 6.23893229166667  16.9334716796875 7.73600260416667  16.9334716796875 9.30598958333333  L 16.9334716796875 14.0455729166667  L 18.0838623046875 15.7386067708333  C 18.364501953125 16.1533203125  18.3900146484375 16.6637369791667  18.151123046875 17.103515625  C 17.9122314453125 17.5432942708333  17.4669189453125 17.8053385416667  16.958984375 17.8053385416667  L 13.020751953125 17.8053385416667  C 12.75634765625 18.484375  12.2994384765625 19.0677083333333  11.69873046875 19.49609375  Z M 2.296142578125 16.3424479166667  L 7.027587890625 16.3424479166667  L 7.34765625 17.2265625  C 7.50537109375 17.6640625  7.7906494140625 18.0400390625  8.17333984375 18.3111979166667  C 8.5606689453125 18.5869140625  9.017578125 18.7327473958333  9.5 18.7327473958333  C 9.9801025390625 18.7327473958333  10.4393310546875 18.5869140625  10.82666015625 18.3089192708333  C 11.2093505859375 18.0377604166667  11.49462890625 17.6617838541667  11.65234375 17.2242838541667  L 11.9700927734375 16.3424479166667  L 16.703857421875 16.3424479166667  L 15.6717529296875 14.8248697916667  L 15.4444580078125 14.4899088541667  L 15.4444580078125 9.30598958333333  C 15.4444580078125 8.05045572916667  15.0455322265625 6.85416666666667  14.2894287109375 5.84928385416667  C 13.9276123046875 5.3662109375  13.4915771484375 4.94010416666667  12.9906005859375 4.58235677083333  C 12.4942626953125 4.22233072916667  11.93994140625 3.9443359375  11.350830078125 3.75520833333333  L 10.7315673828125 3.55696614583334  L 10.506591796875 2.95768229166667  C 10.4300537109375 2.75716145833333  10.293212890625 2.583984375  10.1146240234375 2.45865885416667  C 9.9337158203125 2.33333333333333  9.7203369140625 2.26725260416667  9.5 2.26725260416667  C 9.2796630859375 2.26725260416667  9.0662841796875 2.33333333333333  8.8853759765625 2.45865885416667  C 8.706787109375 2.58170572916667  8.572265625 2.7548828125  8.493408203125 2.95768229166667  L 8.26611328125 3.5546875  L 7.649169921875 3.75520833333333  C 7.0623779296875 3.9443359375  6.508056640625 4.22233072916667  6.007080078125 4.58235677083333  C 5.5130615234375 4.935546875  5.07470703125 5.36165364583333  4.7105712890625 5.84928385416667  C 3.9544677734375 6.85416666666667  3.5555419921875 8.05045572916667  3.5555419921875 9.30598958333333  L 3.5555419921875 14.4876302083333  L 3.3282470703125 14.8225911458333  L 2.296142578125 16.3424479166667  Z " fill-rule="nonzero" fill="#999999" stroke="none" transform="matrix(1 0 0 1 855 110 )" />
  </g>
</svg>