<?xml version="1.0" encoding="utf-8"?>
<svg version="1.1" xmlns:xlink="http://www.w3.org/1999/xlink" width="16px" height="18px" xmlns="http://www.w3.org/2000/svg">
  <g transform="matrix(1 0 0 1 -840 -165 )">
    <path d="M 4.59100150122553 8.56932007924909  C 4.59100150122553 10.1645924376124  6.06676954656855 11.382975  7.99847947303922 11.382975  C 9.93169424019603 11.382975  11.4090612132353 10.1645924376124  11.4090612132353 8.56932007924909  L 11.4090612132353 2.94203608644334  C 11.4090612132353 1.3473331328687  9.93169424019603 0.127708239658284  7.99847947303913 0.127708239658284  C 6.06680091911767 0.127708239658284  4.59100150122553 1.3473331328687  4.59100150122553 2.94203608644334  L 4.59100150122553 8.56932007924909  Z M 6.63548201593138 8.66365899280576  L 6.63548201593138 2.84824070368706  C 6.63548201593138 2.19182819244605  7.20413177083339 1.72238531924461  7.99844813112742 1.72238531924461  C 8.79430070465688 1.72238531924461  9.36295045955888 2.19182819244605  9.36295045955888 2.84824070368706  L 9.36295045955888 8.66365899280576  C 9.36295045955888 9.32004560476619  8.79430070465688 9.78951437724819  7.99844813112742 9.78951437724819  C 7.20413177083339 9.78951437724819  6.63548201593138 9.32004563005845  6.63548201593138 8.66365899280576  Z M 15.9523338541667 8.56929417996852  L 14.0206866115196 8.56929417996852  C 14.0206866115196 11.3829491007194  11.1803221813725 13.3527042659622  7.99844813112742 13.3527042659622  C 4.81811029411768 13.3527042659622  1.9777458639705 11.3829491007194  1.9777458639705 8.56929417996852  L 0.0476348651960837 8.56929417996852  C 0.0476348651960837 11.7580271863759  3.11360318627447 14.3853853951214  6.86418970588238 14.8536377107689  L 6.86418970588238 17.9486012084083  L 9.13584169730397 17.9486012084083  L 9.13584169730397 14.8536377107689  C 12.8833244485294 14.3853853951214  15.9523338541667 11.7580271863759  15.9523338541667 8.56929417996852  Z " fill-rule="nonzero" fill="#999999" stroke="none" transform="matrix(1 0 0 1 840 165 )" />
  </g>
</svg>