<?xml version="1.0" encoding="utf-8"?>
<svg version="1.1" xmlns:xlink="http://www.w3.org/1999/xlink" width="48px" height="48px" xmlns="http://www.w3.org/2000/svg">
  <g transform="matrix(1 0 0 1 -540 -234 )">
    <path d="M 564 235.5  C 576.6 235.5  586.5 245.4  586.5 258  C 586.5 270.6  576.6 280.5  564 280.5  C 551.4 280.5  541.5 270.6  541.5 258  C 541.5 245.4  551.4 235.5  564 235.5  Z " fill-rule="nonzero" fill="#ffffff" stroke="none" fill-opacity="0" />
    <path d="M 564 235  C 576.88 235  587 245.12  587 258  C 587 270.88  576.88 281  564 281  C 551.12 281  541 270.88  541 258  C 541 245.12  551.12 235  564 235  Z " stroke-width="2" stroke="#3c3c3c" fill="none" stroke-opacity="0.388235294117647" />
  </g>
</svg>